<?xml version="1.0" encoding="UTF-8" standalone="no"?><!DOCTYPE svg PUBLIC "-//W3C//DTD SVG 1.1//EN" "http://www.w3.org/Graphics/SVG/1.1/DTD/svg11.dtd"><!-- Generated by graphviz version 2.40.1 (20161225.0304)
 --><!-- Title: ResourceAllocationGraph Pages: 1 --><svg xmlns="http://www.w3.org/2000/svg" xmlns:xlink="http://www.w3.org/1999/xlink" width="164pt" height="124pt" viewBox="0.00 0.00 163.53 123.53">
<g id="graph0" class="graph" transform="scale(1 1) rotate(0) translate(4 119.5332)">
<title>ResourceAllocationGraph</title>
<polygon fill="#ffffff" stroke="transparent" points="-4,4 -4,-119.5332 159.5332,-119.5332 159.5332,4 -4,4"/>
<!-- P1 -->
<g id="node1" class="node">
<title>P1</title>
<ellipse fill="#add8e6" stroke="#000000" cx="21.7666" cy="-93.7666" rx="21.5356" ry="21.5356"/>
<text text-anchor="middle" x="21.7666" y="-89.5666" font-family="Times,serif" font-size="14.00" fill="#000000">P1</text>
</g>
<!-- R1 -->
<g id="node3" class="node">
<title>R1</title>
<polygon fill="#ffffe0" stroke="#000000" points="94.105,-111.7666 61.4282,-111.7666 61.4282,-75.7666 94.105,-75.7666 94.105,-111.7666"/>
<text text-anchor="middle" x="77.7666" y="-89.5666" font-family="Times,serif" font-size="14.00" fill="#000000">R1</text>
</g>
<!-- P1&#45;&gt;R1 -->
<g id="edge1" class="edge">
<title>P1-&gt;R1</title>
<path fill="none" stroke="#000000" d="M43.6416,-93.7666C46.2465,-93.7666 48.8514,-93.7666 51.4563,-93.7666"/>
<polygon fill="#000000" stroke="#000000" points="51.5039,-97.2667 61.5039,-93.7666 51.5039,-90.2667 51.5039,-97.2667"/>
</g>
<!-- P2 -->
<g id="node2" class="node">
<title>P2</title>
<ellipse fill="#add8e6" stroke="#000000" cx="133.7666" cy="-93.7666" rx="21.5356" ry="21.5356"/>
<text text-anchor="middle" x="133.7666" y="-89.5666" font-family="Times,serif" font-size="14.00" fill="#000000">P2</text>
</g>
<!-- R2 -->
<g id="node4" class="node">
<title>R2</title>
<polygon fill="#ffffe0" stroke="#000000" points="94.105,-36 61.4282,-36 61.4282,0 94.105,0 94.105,-36"/>
<text text-anchor="middle" x="77.7666" y="-13.8" font-family="Times,serif" font-size="14.00" fill="#000000">R2</text>
</g>
<!-- P2&#45;&gt;R2 -->
<g id="edge2" class="edge">
<title>P2-&gt;R2</title>
<path fill="none" stroke="#000000" d="M120.7783,-76.1938C113.7417,-66.6734 104.9092,-54.7233 97.0818,-44.133"/>
<polygon fill="#000000" stroke="#000000" points="99.8318,-41.9652 91.0733,-36.0037 94.2025,-46.1259 99.8318,-41.9652"/>
</g>
<!-- R1&#45;&gt;P2 -->
<g id="edge4" class="edge">
<title>R1-&gt;P2</title>
<path fill="none" stroke="#000000" d="M93.9541,-93.7666C96.5849,-93.7666 99.2158,-93.7666 101.8466,-93.7666"/>
<polygon fill="#000000" stroke="#000000" points="101.9942,-97.2667 111.9941,-93.7666 101.9941,-90.2667 101.9942,-97.2667"/>
</g>
<!-- R2&#45;&gt;P1 -->
<g id="edge3" class="edge">
<title>R2-&gt;P1</title>
<path fill="none" stroke="#000000" d="M64.4599,-36.0037C57.3699,-45.5962 48.5262,-57.5615 40.7296,-68.1101"/>
<polygon fill="#000000" stroke="#000000" points="37.8841,-66.0716 34.7549,-76.1938 43.5134,-70.2323 37.8841,-66.0716"/>
</g>
</g>
</svg>